<svg width="20" height="20" viewBox="0 0 20 20" fill="none" xmlns="http://www.w3.org/2000/svg">
<g clip-path="url(#clip0_182_34)">
<path d="M5.86722 3.82227C6.43669 3.82227 6.96293 3.8655 7.44593 3.99521C7.92769 4.08168 8.32422 4.26203 8.67628 4.47821C9.02957 4.69562 9.29022 5.00444 9.4681 5.40097C9.64105 5.79627 9.73493 6.27927 9.73493 6.8055C9.73493 7.41821 9.60399 7.94444 9.29516 8.33974C9.02957 8.73503 8.59599 9.08832 8.06358 9.34897C8.81216 9.56638 9.38163 9.96168 9.72875 10.4879C10.0759 11.0141 10.2982 11.6701 10.2982 12.4187C10.2982 13.0314 10.1685 13.5576 9.94616 13.9974C9.72435 14.44 9.39151 14.8176 8.98016 15.0931C8.58487 15.3587 8.10187 15.5749 7.57563 15.7058C7.06014 15.8419 6.53003 15.9149 5.99693 15.9232L0.118164 15.9319V3.82227H5.86722ZM5.51516 8.73627C5.99693 8.73627 6.39222 8.60656 6.69734 8.38421C7.00122 8.16185 7.13587 7.77027 7.13587 7.2885C7.13587 7.02168 7.09263 6.76227 7.00616 6.58809C6.91257 6.41156 6.77677 6.26091 6.61087 6.14956C6.43167 6.05185 6.24012 5.97872 6.0414 5.93215C5.82399 5.88891 5.60163 5.88891 5.34099 5.88891H2.79875V8.74244C2.79875 8.73627 5.5164 8.73627 5.5164 8.73627H5.51516ZM5.64487 13.9159C5.91046 13.9159 6.1711 13.8726 6.39346 13.8294C6.61087 13.7861 6.83322 13.6984 7.00616 13.5626C7.1791 13.4267 7.31499 13.297 7.44593 13.0808C7.5324 12.8634 7.61887 12.5978 7.61887 12.289C7.61887 11.6763 7.44593 11.2365 7.09263 10.9277C6.74057 10.6621 6.25758 10.5324 5.6881 10.5324H2.79875V13.9097H5.6461V13.9159H5.64487ZM14.1165 13.8726C14.4698 14.2247 14.9948 14.3989 15.6952 14.3989C16.177 14.3989 16.6168 14.2679 16.97 14.0456C17.3221 13.78 17.5383 13.5193 17.6248 13.255H19.7742C19.4209 14.3062 18.8946 15.0548 18.1955 15.5378C17.4963 15.9763 16.66 16.237 15.6508 16.237C15.0054 16.2398 14.3653 16.1204 13.7645 15.8849C13.2237 15.6839 12.7411 15.352 12.3599 14.9189C11.9533 14.5151 11.6514 14.0181 11.4804 13.4711C11.2642 12.9017 11.1716 12.289 11.1716 11.5836C11.1716 10.9277 11.258 10.3088 11.4804 9.73932C11.7028 9.17109 12.0066 8.68685 12.4032 8.24832C12.7985 7.85303 13.2815 7.49974 13.8077 7.28232C14.3945 7.0487 15.0204 6.92921 15.652 6.93027C16.4006 6.93027 17.0565 7.05997 17.626 7.36879C18.1942 7.67762 18.6352 8.02597 18.9873 8.55221C19.3393 9.03397 19.6 9.60344 19.7791 10.2174C19.8656 10.8301 19.9088 11.4477 19.8656 12.1481H13.5038C13.5038 12.8646 13.7632 13.5193 14.1165 13.8726ZM16.8836 9.2625C16.5748 8.95368 16.0905 8.7795 15.521 8.7795C15.1258 8.7795 14.8219 8.86597 14.5563 8.99691C14.2907 9.12662 14.1165 9.30574 13.9436 9.47868C13.7821 9.64823 13.6746 9.86191 13.6348 10.0926C13.5903 10.3088 13.5483 10.4879 13.5483 10.6609H17.4963C17.4098 10.0111 17.1875 9.57132 16.8823 9.2625H16.8836ZM13.0208 4.65732H17.9348V5.8395H13.0208V4.65732Z" fill="white"/>
</g>
<defs>
<clipPath id="clip0_182_34">
<rect width="19.7647" height="19.7647" fill="white" transform="translate(0.118164 0.117188)"/>
</clipPath>
</defs>
</svg>
