<svg width="24" height="24" viewBox="0 0 24 24" fill="none" xmlns="http://www.w3.org/2000/svg">
<g clip-path="url(#clip0_182_26)">
<path fill-rule="evenodd" clip-rule="evenodd" d="M11.9995 0.882812C5.86254 0.882812 0.881836 5.86352 0.881836 12.0005C0.881836 18.1374 5.86254 23.1181 11.9995 23.1181C18.1253 23.1181 23.1171 18.1374 23.1171 12.0005C23.1171 5.86352 18.1253 0.882812 11.9995 0.882812ZM19.3427 6.00805C20.7113 7.67469 21.4689 9.75921 21.4898 11.9157C21.1757 11.8559 18.0405 11.2167 14.8817 11.6141C14.8095 11.4585 14.7483 11.2889 14.6761 11.1208C14.4829 10.6622 14.2661 10.1925 14.0493 9.74497C17.5458 8.3233 19.1384 6.27348 19.3441 6.00666L19.3427 6.00805ZM11.9995 2.52267C14.4106 2.52267 16.6175 3.42597 18.2949 4.91018C18.1253 5.15199 16.6897 7.06839 13.3141 8.33442C11.7577 5.47718 10.0344 3.13692 9.769 2.77559C10.5001 2.60488 11.2487 2.51999 11.9995 2.52267ZM7.95961 3.41486C9.23213 5.17846 10.4077 7.01002 11.4811 8.90142C7.04379 10.0827 3.12482 10.059 2.70235 10.059C3.00789 8.6217 3.64131 7.27437 4.55323 6.12212C5.46515 4.96986 6.63092 4.04383 7.95961 3.41625V3.41486ZM2.49806 12.0144V11.7225C2.90803 11.7364 7.5149 11.7962 12.2538 10.3731C12.5304 10.9026 12.7833 11.446 13.0251 11.988L12.6499 12.0963C7.75532 13.6764 5.15101 17.9929 4.93283 18.3556C3.36499 16.6151 2.49758 14.3555 2.49806 12.013V12.0144ZM11.9995 21.5019C9.88928 21.5052 7.83896 20.8005 6.17662 19.5007C6.34338 19.1505 8.27368 15.4372 13.6268 13.568C13.6518 13.5555 13.663 13.5555 13.688 13.5444C14.5905 15.8741 15.2685 18.2846 15.7128 20.7431C14.5399 21.2471 13.2761 21.5053 11.9995 21.5019ZM17.2943 19.8745C17.197 19.295 16.6897 16.5226 15.4487 13.1094C18.4269 12.6397 21.0312 13.411 21.3564 13.5194C21.1538 14.8016 20.6883 16.0281 19.989 17.1218C19.2897 18.2154 18.3718 19.1526 17.2929 19.8745H17.2943Z" fill="white"/>
</g>
<defs>
<clipPath id="clip0_182_26">
<rect width="22.2353" height="22.2353" fill="white" transform="translate(0.881836 0.882812)"/>
</clipPath>
</defs>
</svg>
