<svg width="24" height="19" viewBox="0 0 24 19" fill="none" xmlns="http://www.w3.org/2000/svg">
<path d="M7.8665 18.7283C16.2575 18.7283 20.8477 11.7756 20.8477 5.75676C20.8477 5.5622 20.8477 5.36486 20.8394 5.1703C21.7331 4.52337 22.5044 3.72244 23.1171 2.80502C22.2824 3.17309 21.3977 3.41567 20.492 3.52489C21.4461 2.95461 22.1606 2.05732 22.5029 0.999795C21.6065 1.53083 20.6254 1.90362 19.6026 2.10183C18.9149 1.36949 18.005 0.884335 17.0137 0.721516C16.0224 0.558698 15.005 0.727303 14.1193 1.20121C13.2335 1.67513 12.5287 2.4279 12.1141 3.34292C11.6994 4.25795 11.5981 5.28416 11.8258 6.26261C10.0118 6.17166 8.23729 5.70043 6.61721 4.8795C4.99713 4.05856 3.5677 2.90625 2.42163 1.49731C1.83982 2.50218 1.66226 3.69082 1.92501 4.82186C2.18777 5.95289 2.87114 6.94152 3.83635 7.587C3.11306 7.56243 2.40568 7.3682 1.77125 7.02V7.08254C1.77249 8.13521 2.13717 9.15517 2.80362 9.97001C3.47008 10.7849 4.39744 11.3446 5.42895 11.5546C5.03742 11.6625 4.63297 11.7162 4.22686 11.7144C3.94056 11.7153 3.65483 11.6888 3.37358 11.6352C3.66512 12.5414 4.2328 13.3337 4.9971 13.9011C5.7614 14.4685 6.68404 14.7827 7.63581 14.7996C6.01896 16.0695 4.02174 16.7582 1.96581 16.7549C1.60354 16.7564 1.24152 16.7355 0.881836 16.6924C2.9685 18.0227 5.39185 18.729 7.8665 18.7283Z" fill="white"/>
</svg>
